<svg width="135" height="38" viewBox="0 0 135 38" fill="none" xmlns="http://www.w3.org/2000/svg">
<g clip-path="url(#clip0_171_2600)">
<path d="M31.8857 7.50758L31.9527 7.57955C32.006 7.63953 32.6361 8.32926 32.8766 8.64564C33.2448 9.11641 33.5863 9.60698 33.8993 10.1151C34.2506 10.6771 34.5673 11.2594 34.8475 11.8589C35.5425 13.424 36.027 15.0718 36.2888 16.7605C36.3406 17.0814 36.3726 17.9346 36.4045 18.7653C36.441 19.6559 36.3832 21.7416 36.3604 22.2859C36.2412 24.6691 35.9359 27.0397 35.4472 29.3767C36.9162 27.1928 37.8886 24.7218 38.2979 22.133C38.4539 21.2281 38.5389 20.3128 38.552 19.395C38.5693 18.6318 38.5327 17.8682 38.4424 17.1099C38.3998 16.6841 38.342 16.2597 38.272 15.8414C38.202 15.4231 38.1107 14.9882 38.0087 14.5684C37.202 11.2516 35.5278 8.28878 33.4427 6.11311L33.3514 6.01414L31.8857 7.50758Z" fill="#006ED5"/>
<path d="M19.4189 0.00463867L18.8756 0.0151346C8.75135 0.21156 1.2023 7.9726 0.168876 16.4519C0.095821 17.0591 0.00754566 18.0652 0.00450169 18.4011C-0.00310823 19.2153 -0.00462989 19.5737 0.0440736 20.3969C0.0927771 21.22 0.424569 23.3013 0.776148 24.3883C1.12773 25.4754 1.2023 25.6688 1.31341 25.9357C1.71595 26.9168 2.18791 27.8688 2.72581 28.7847C3.65574 30.3711 5.3284 32.2124 5.82 32.6667C6.19137 33.01 6.61448 33.3594 7.16087 33.8167C8.88545 35.2332 10.8627 36.3209 12.9916 37.024C14.7697 37.6185 16.6275 37.9494 18.5042 38.0061H19.8923C20.4813 37.9866 21.0581 37.9432 21.6228 37.8817C22.9575 37.7317 24.5145 37.3989 25.5282 37.003C28.2921 35.9309 30.3879 33.8872 30.5873 33.6623C30.9008 34.322 31.1276 35.2007 31.1626 36.4302C31.712 35.4301 33.129 33.2005 33.6541 29.4534C33.8122 28.4153 33.8992 27.3678 33.9143 26.3181C33.9503 24.8707 33.8949 23.4224 33.7484 21.9818C33.5764 20.3879 33.1594 17.8613 32.1671 15.3918C31.3224 13.555 29.7547 11.6042 29.6741 11.5038C29.1825 10.8785 29.0881 10.5456 29.0303 10.2382C28.9488 9.66668 29.0914 9.08603 29.429 8.61436C29.8552 8.00109 30.5249 6.90351 30.7318 6.3937C30.891 6.03775 31.0223 5.67032 31.1245 5.29462C31.1597 5.15092 31.172 5.00271 31.161 4.85529C31.0944 4.4897 30.9729 4.13595 30.8003 3.80569C30.601 3.41284 30.2539 3.10246 30.0272 3.05597C29.9224 3.02283 29.8104 3.0183 29.7032 3.04285C29.596 3.06741 29.4976 3.12013 29.4184 3.19542C29.3803 3.22991 29.2936 3.31538 29.2083 3.39934C29.1231 3.48331 28.8339 3.81618 28.7365 3.91365C28.3549 4.29653 27.896 4.59637 27.3896 4.79381C27.2572 4.84479 26.5966 5.07271 26.417 5.12519C26.2374 5.17767 25.6134 5.39958 25.4277 5.45506C24.7565 5.65448 23.8616 5.78493 22.953 6.19728C22.3838 6.45668 22.0002 6.83453 21.6517 7.13742C21.5604 7.21689 21.4736 7.28736 21.3929 7.37283C20.9485 7.79417 20.5756 8.45991 20.2621 9.08817C19.9486 9.71643 19.836 10.6581 19.8329 11.3268C19.8329 11.7422 20.0201 12.7963 20.1251 13.2461C20.2302 13.6959 20.3534 14.3257 20.4554 15.0049C20.5072 15.3513 20.5467 15.6617 20.5574 15.8506C20.6061 16.6348 20.6807 17.0666 20.6457 17.7639C20.6365 17.9258 20.6228 18.0997 20.6015 18.2977C20.4874 19.3473 20.253 20.5603 19.11 22.5051C18.5544 23.4497 17.5606 24.4228 16.066 25.243C14.0783 26.3481 11.9353 26.672 9.32209 26.0932C9.20946 26.0692 8.72852 25.9028 8.49717 25.8098C8.30352 25.7282 8.13467 25.5985 8.0071 25.4334C7.91242 25.3092 7.84692 25.1658 7.81533 25.0136C7.78884 24.8986 7.78164 24.78 7.79402 24.6627C7.79968 24.6034 7.81089 24.5446 7.8275 24.4873C7.91578 24.1964 8.11211 23.9775 8.84571 23.4842C9.87847 22.7716 10.6397 21.7392 11.0084 20.5513L10.6888 20.7372C9.6764 21.3125 8.49767 21.5373 7.34047 21.376C6.2397 21.2023 5.22558 20.6822 4.44975 19.8936C3.67391 19.1049 3.17805 18.09 3.03629 17.0007C2.99071 16.6199 2.98459 16.2356 3.01803 15.8536C3.02868 15.7516 3.04086 15.6482 3.05912 15.5447C3.0984 15.2932 3.15743 15.045 3.23567 14.8025C3.5655 13.3396 4.12578 11.9367 4.89616 10.6446C5.87232 8.96242 7.13229 7.45644 8.62198 6.19128C9.24599 5.64699 11.0891 4.17605 13.3614 3.34237C15.7631 2.4577 17.0294 2.33025 18.384 2.23579C18.5742 2.22229 19.4692 2.1998 19.8907 2.2133C20.3473 2.22829 20.8039 2.24628 20.9044 2.25678C22.0629 2.35592 23.2073 2.57659 24.3182 2.91503C25.3395 3.21491 25.5008 3.34386 26.1644 3.59727L27.6498 1.89692L27.4976 1.82794C27.1932 1.678 26.796 1.50257 26.3866 1.34363C25.93 1.1637 25.4536 0.99726 24.962 0.848817C24.3532 0.666886 23.7541 0.516943 23.1645 0.398988C21.9302 0.144219 20.6724 0.0160845 19.4113 0.0166341H19.6168H19.594H19.4068" fill="#006ED5"/>
<path d="M71.7996 7.66658V29.7472H88.6769V26.198H75.9592V19.8914H87.0697V16.4772H75.9897V10.9998H88.3801V7.55112C87.467 7.64409 81.9401 7.68057 71.7996 7.66058M103.086 12.2833C103.175 12.0374 103.175 12.0374 103.653 10.7539C103.98 11.6536 104.07 11.9819 104.189 12.2833L107.385 20.3622H99.9837L103.086 12.2833ZM101.011 7.55712C100.859 8.27535 92.3951 28.774 91.9492 29.5192H96.8195C96.9778 28.7455 97.6708 26.7773 98.8986 23.6145H108.406C109.633 26.9442 110.306 28.9125 110.426 29.5192H115.296C114.881 28.801 106.317 8.22737 106.175 7.55712H101.011ZM118.123 7.55712V29.5192H135V25.9206H122.632V7.55712H118.123ZM50.2499 13.4049C50.2499 15.2522 51.0109 16.7681 52.5222 17.8702C53.5876 18.6424 54.7641 19.0832 56.9786 19.551C61.0499 20.4342 61.2264 20.4612 62.1122 20.9005C63.0254 21.3699 63.587 22.307 63.587 23.4361C63.587 25.5038 61.817 26.7438 58.8689 26.7438C56.9512 26.7438 55.417 26.165 54.5617 25.1184C54.24 24.7346 53.9762 24.0348 53.7702 23.0192L49.4858 23.1047C49.6639 24.2353 49.7811 24.7541 50.0474 25.3913C50.5523 26.6855 51.4616 27.7882 52.644 28.5401C54.0594 29.4218 56.42 29.9736 58.84 29.9736C61.9965 29.9736 64.3282 29.2838 65.8928 27.8744C67.1013 26.7438 67.7512 25.1454 67.7512 23.1887C67.7512 21.1209 66.9902 19.605 65.3023 18.4475C64.2369 17.7592 62.823 17.2359 60.4928 16.7666C57.216 16.0769 56.9816 16.0169 56.3317 15.774C54.9741 15.2237 54.3257 14.4245 54.3257 13.2669C54.3257 11.4676 56.0669 10.2681 58.633 10.2681C60.2569 10.2681 61.5247 10.7689 62.3223 11.5921C62.5871 11.868 62.8463 12.3798 63.1 13.1275L67.427 13.0795C67.0724 11.6191 66.7177 10.7914 65.9811 9.88273C64.5352 8.06393 61.9965 7.0983 58.633 7.0983C53.5587 7.0983 50.2529 9.57985 50.2529 13.4094" fill="#001B50"/>
</g>
<defs>
<clipPath id="clip0_171_2600">
<rect width="135" height="38" fill="white"/>
</clipPath>
</defs>
</svg>
